<svg width="40" height="40" viewBox="0 0 40 40" fill="none" xmlns="http://www.w3.org/2000/svg">
<path fill-rule="evenodd" clip-rule="evenodd" d="M20 3.75C11.025 3.75 3.75 11.025 3.75 20C3.75 28.975 11.025 36.25 20 36.25C28.975 36.25 36.25 28.975 36.25 20C36.25 11.025 28.975 3.75 20 3.75ZM17.1333 15.3667C17.0189 15.2439 16.8809 15.1454 16.7276 15.077C16.5742 15.0087 16.4087 14.972 16.2409 14.969C16.073 14.9661 15.9063 14.9969 15.7507 15.0598C15.595 15.1227 15.4536 15.2162 15.3349 15.3349C15.2162 15.4536 15.1227 15.595 15.0598 15.7507C14.9969 15.9063 14.9661 16.073 14.969 16.2409C14.972 16.4087 15.0087 16.5742 15.077 16.7276C15.1454 16.8809 15.2439 17.0189 15.3667 17.1333L18.2333 20L15.3667 22.8667C15.2439 22.9811 15.1454 23.1191 15.077 23.2724C15.0087 23.4258 14.972 23.5913 14.969 23.7591C14.9661 23.927 14.9969 24.0937 15.0598 24.2493C15.1227 24.405 15.2162 24.5464 15.3349 24.6651C15.4536 24.7838 15.595 24.8773 15.7507 24.9402C15.9063 25.0031 16.073 25.0339 16.2409 25.031C16.4087 25.028 16.5742 24.9913 16.7276 24.923C16.8809 24.8546 17.0189 24.7561 17.1333 24.6333L20 21.7667L22.8667 24.6333C22.9811 24.7561 23.1191 24.8546 23.2724 24.923C23.4258 24.9913 23.5913 25.028 23.7591 25.031C23.927 25.0339 24.0937 25.0031 24.2493 24.9402C24.405 24.8773 24.5464 24.7838 24.6651 24.6651C24.7838 24.5464 24.8773 24.405 24.9402 24.2493C25.0031 24.0937 25.0339 23.927 25.031 23.7591C25.028 23.5913 24.9913 23.4258 24.923 23.2724C24.8546 23.1191 24.7561 22.9811 24.6333 22.8667L21.7667 20L24.6333 17.1333C24.7561 17.0189 24.8546 16.8809 24.923 16.7276C24.9913 16.5742 25.028 16.4087 25.031 16.2409C25.0339 16.073 25.0031 15.9063 24.9402 15.7507C24.8773 15.595 24.7838 15.4536 24.6651 15.3349C24.5464 15.2162 24.405 15.1227 24.2493 15.0598C24.0937 14.9969 23.927 14.9661 23.7591 14.969C23.5913 14.972 23.4258 15.0087 23.2724 15.077C23.1191 15.1454 22.9811 15.2439 22.8667 15.3667L20 18.2333L17.1333 15.3667Z" fill="#AFAFAF"/>
</svg>
