<svg width="128" height="128" viewBox="0 0 128 128" fill="none" xmlns="http://www.w3.org/2000/svg">
<path d="M11.1227 62.6533L8.98942 59.024L20.4188 52.3067L26.2853 58.128L33.584 53.2L35.9386 56.6907L25.7734 63.552L19.7627 57.5813L11.1227 62.6533ZM26.2694 70.2453L20.4027 64.4267L8.97331 71.144L11.1068 74.7734L19.736 69.7067L25.7467 75.6773L35.9121 68.816L33.5573 65.3253L26.2694 70.2453ZM0 0V128H128V0H0ZM83.0881 44.9147V83.0773H44.936V44.9147H83.0881ZM83.0881 3.37069V41.5333H44.936V3.37069H83.0881ZM3.368 3.37069H41.5387V41.5333H3.37598L3.368 3.37069ZM41.5387 44.9147V83.0773H3.37598V44.9147H41.5387ZM41.5387 124.632H3.37598V86.456H41.5467L41.5387 124.632ZM83.0881 124.632H44.936V86.456H83.096L83.0881 124.632ZM124.635 124.632H86.4666V86.456H124.64L124.635 124.632ZM124.635 83.0773H86.4666V44.9147H124.64L124.635 83.0773ZM86.4614 41.5333V3.37069H124.635V41.5333H86.4614ZM102.592 95.8613C102.592 95.0798 102.902 94.3303 103.455 93.7777C104.008 93.2251 104.757 92.9147 105.539 92.9147C105.925 92.9147 106.308 92.991 106.664 93.1392C107.021 93.2875 107.345 93.5047 107.618 93.7785C107.89 94.0523 108.106 94.3773 108.253 94.7347C108.399 95.0921 108.474 95.475 108.472 95.8613C108.472 96.6405 108.163 97.388 107.614 97.9403C107.064 98.4925 106.318 98.8045 105.539 98.808C104.758 98.8059 104.011 98.4946 103.459 97.9423C102.908 97.39 102.598 96.6417 102.597 95.8613H102.592ZM105.539 103.019C104.757 103.019 104.008 103.329 103.455 103.882C102.902 104.434 102.592 105.184 102.592 105.965C102.592 106.747 102.902 107.496 103.455 108.049C104.008 108.602 104.757 108.912 105.539 108.912C106.318 108.908 107.064 108.596 107.614 108.044C108.163 107.492 108.472 106.745 108.472 105.965C108.474 105.58 108.4 105.197 108.253 104.841C108.107 104.484 107.892 104.159 107.62 103.885C107.349 103.612 107.026 103.394 106.67 103.246C106.314 103.097 105.932 103.02 105.547 103.019H105.539ZM105.539 113.125C104.76 113.125 104.012 113.434 103.46 113.984C102.908 114.533 102.595 115.279 102.592 116.059C102.592 116.84 102.902 117.59 103.455 118.142C104.008 118.695 104.757 119.005 105.539 119.005C105.925 119.005 106.308 118.929 106.664 118.781C107.021 118.633 107.345 118.415 107.618 118.141C107.89 117.868 108.106 117.543 108.253 117.185C108.399 116.828 108.474 116.445 108.472 116.059C108.472 115.282 108.164 114.537 107.616 113.987C107.067 113.437 106.323 113.127 105.547 113.125H105.539ZM97.272 15.912H104.101V24.232C104.163 25.485 103.766 26.7176 102.984 27.6987C102.631 28.1248 102.186 28.4647 101.681 28.6925C101.177 28.9204 100.628 29.0301 100.075 29.0133H97.272V25.4667H98.6266C99.7644 25.4667 100.333 24.9698 100.333 23.976V22.664H97.272V15.912ZM107.035 15.912H113.821V24.232C113.884 25.4816 113.495 26.712 112.725 27.6987C112.378 28.1258 111.936 28.4667 111.434 28.6947C110.933 28.9228 110.385 29.0319 109.835 29.0133H107.043V25.4667H108.4C109.538 25.4667 110.107 24.9698 110.107 23.976V22.664H107.043L107.035 15.912Z" fill="white"/>
<path d="M25.2935 34.7146H19.6294V17.5145H15.2295V12.4825H29.6935V17.5145H25.2935V34.7146Z" fill="white"/>
<path d="M63.9439 35.1492C62.4082 35.1859 60.881 34.9108 59.4546 34.3407C58.0283 33.7705 56.7324 32.917 55.6452 31.8318C54.5499 30.7738 53.6853 29.5004 53.1062 28.092C52.527 26.6835 52.2457 25.1704 52.2798 23.6478C52.2417 22.1142 52.5192 20.5891 53.0949 19.167C53.6706 17.745 54.5322 16.4564 55.6265 15.3812C56.7132 14.289 58.0113 13.4301 59.4414 12.857C60.8716 12.2838 62.4037 12.0085 63.9439 12.0479C65.4945 12.0126 67.0361 12.2911 68.4764 12.8667C69.9167 13.4422 71.226 14.303 72.3252 15.3972C73.4324 16.4555 74.3077 17.7323 74.8957 19.1466C75.4837 20.5608 75.7715 22.0818 75.7411 23.6132C75.7724 25.1419 75.4848 26.6603 74.8967 28.0717C74.3085 29.4831 73.4328 30.7564 72.3252 31.8105C71.2242 32.9016 69.9145 33.7595 68.4745 34.3331C67.0344 34.9068 65.4936 35.1843 63.9439 35.1492ZM64.0078 17.0825C63.1939 17.0648 62.3857 17.2223 61.6381 17.5444C60.8904 17.8664 60.2207 18.3455 59.6745 18.9492C58.5141 20.1991 57.8915 21.8551 57.9411 23.5599C57.8855 25.2933 58.5138 26.9791 59.6905 28.2532C60.2451 28.8599 60.9236 29.3405 61.6799 29.6625C62.4362 29.9845 63.2527 30.1405 64.0744 30.1198C64.8779 30.133 65.6748 29.9732 66.411 29.6511C67.1472 29.329 67.8056 28.8522 68.3412 28.2532C69.4945 27.0055 70.1154 25.357 70.0718 23.6585C70.121 21.9322 69.4943 20.2549 68.3252 18.9838C67.7853 18.3751 67.1202 17.89 66.3755 17.5619C65.6309 17.2337 64.8215 17.0702 64.0078 17.0825Z" fill="white"/>
<path d="M56.7793 65.7413V61.8399H61.9126V56.7066H66.1126V61.8399H71.2459V65.7413H66.1126V70.8719H61.9126V65.7413H56.7793Z" fill="white"/>
<path d="M111.622 75.1065H99.3926V52.8745H105.059V70.0718H111.625L111.622 75.1065Z" fill="white"/>
<path d="M18.9089 116.357H13.2529V94.1251H18.9168V104.16L25.2476 94.1251H31.2129L23.8156 105.224L31.6795 116.357H25.0129L18.9142 106.757L18.9089 116.357Z" fill="white"/>
<path d="M63.9407 116.792C62.4051 116.829 60.878 116.554 59.4516 115.983C58.0253 115.413 56.7293 114.56 55.6421 113.475C54.5465 112.417 53.682 111.144 53.1028 109.736C52.5236 108.328 52.2424 106.815 52.2768 105.293C52.2391 103.759 52.5169 102.234 53.0931 100.812C53.6692 99.3901 54.5314 98.1016 55.6261 97.0266C56.7125 95.9348 58.0103 95.0761 59.4399 94.5029C60.8695 93.9298 62.401 93.6543 63.9407 93.6933C65.4918 93.6578 67.034 93.9362 68.4747 94.5117C69.9155 95.0873 71.2252 95.9482 72.3248 97.0426C73.432 98.1009 74.3073 99.3777 74.8953 100.792C75.4833 102.206 75.7712 103.727 75.7407 105.259C75.7722 106.788 75.4848 108.307 74.8966 109.718C74.3085 111.13 73.4326 112.404 72.3248 113.459C71.2228 114.549 69.9124 115.406 68.472 115.978C67.0315 116.551 65.4904 116.828 63.9407 116.792ZM64.0101 98.7279C63.1962 98.7107 62.3882 98.8685 61.6406 99.1905C60.893 99.5125 60.2233 99.9914 59.6767 100.595C58.5167 101.844 57.8943 103.499 57.9435 105.203C57.8884 106.936 58.5167 108.621 59.6928 109.896C60.248 110.503 60.9268 110.983 61.6836 111.305C62.4403 111.627 63.2572 111.783 64.0794 111.763C64.8831 111.777 65.6804 111.618 66.4168 111.296C67.1532 110.974 67.8114 110.496 68.3462 109.896C69.5005 108.65 70.1224 107.002 70.0794 105.304C70.1278 103.577 69.5001 101.9 68.33 100.629C67.7894 100.019 67.1232 99.5328 66.3771 99.2042C65.631 98.8755 64.8227 98.7121 64.0075 98.7252L64.0101 98.7279Z" fill="white"/>
</svg>
